<svg width="38" height="38" viewBox="0 0 38 38" fill="none" xmlns="http://www.w3.org/2000/svg">
<g clip-path="url(#clip0_238_12)">
<path d="M32.2435 5.87953C31.8755 6.90583 31.681 7.92913 31.6661 8.95843C31.6511 9.98772 31.8127 11.017 32.1538 12.0523L32.2735 12.4083L31.9174 12.2887C30.9031 11.9506 29.8828 11.786 28.8565 11.798C27.8272 11.8129 26.7919 12.0044 25.7446 12.3754L25.3706 12.5071L25.5053 12.1331C25.8733 11.1098 26.0678 10.0835 26.0828 9.05417C26.0977 8.02488 25.9361 6.99559 25.595 5.96032L25.4783 5.60425L25.8344 5.72394C26.8487 6.06205 27.8691 6.22661 28.8954 6.21465C29.9217 6.19969 30.9599 6.00819 32.0042 5.63717L32.3782 5.50551L32.2435 5.87953ZM37.6413 19.0868C36.6569 19.5506 35.7952 20.14 35.0561 20.8551C34.3171 21.5702 33.7037 22.414 33.213 23.3865L33.0454 23.7216L32.8779 23.3865C32.4021 22.429 31.7947 21.5942 31.0587 20.8761C30.3196 20.158 29.4519 19.5625 28.4495 19.0868L28.0905 18.9162L28.4495 18.7487C29.4339 18.2849 30.2957 17.6954 31.0347 16.9803C31.7738 16.2652 32.3872 15.4214 32.8779 14.446L33.0454 14.1109L33.213 14.446C33.6917 15.4035 34.2961 16.2413 35.0322 16.9564C35.7683 17.6745 36.636 18.2699 37.6413 18.7487L38.0004 18.9192L37.6413 19.0898V19.0868ZM31.7828 28.892C31.7977 29.9183 31.9892 30.9565 32.3602 32.0008L32.4919 32.3748L32.1179 32.2402C31.0916 31.8721 30.0683 31.6776 29.039 31.6627C28.0097 31.6477 26.9804 31.8093 25.9451 32.1504L25.5891 32.2701L25.7087 31.914C26.0469 30.8997 26.2114 29.8794 26.1995 28.8531C26.1845 27.8238 25.993 26.7885 25.622 25.7413L25.4903 25.3672L25.8643 25.5019C26.8876 25.8699 27.9139 26.0644 28.9432 26.0794C29.9725 26.0943 31.0018 25.9328 32.0371 25.5917L32.3932 25.475L32.2735 25.831C31.9354 26.8454 31.7708 27.8657 31.7828 28.892ZM23.5544 33.2126C22.5969 33.6913 21.7591 34.2957 21.044 35.0318C20.3259 35.7679 19.7305 36.6356 19.2547 37.6409L19.0842 38L18.9136 37.6409C18.4498 36.6565 17.8604 35.7948 17.1453 35.0557C16.4302 34.3167 15.5864 33.7033 14.6139 33.2126L14.2788 33.045L14.6139 32.8775C15.5714 32.4017 16.4062 31.7943 17.1243 31.0583C17.8424 30.3222 18.4379 29.4515 18.9136 28.4491L19.0842 28.0901L19.2547 28.4491C19.7185 29.4335 20.305 30.2953 21.0231 31.0343C21.7382 31.7734 22.582 32.3868 23.5574 32.8775L23.8925 33.045L23.5574 33.2126H23.5544ZM12.4955 25.8609C12.1275 26.8843 11.933 27.9106 11.918 28.9398C11.9031 29.9691 12.0646 30.9984 12.4058 32.0337L12.5224 32.3898L12.1664 32.2701C11.1521 31.932 10.1317 31.7674 9.10544 31.7794C8.07914 31.7943 7.04087 31.9858 5.99662 32.3569L5.6226 32.4885L5.75725 32.1145C6.12528 31.0882 6.31977 30.0649 6.33473 29.0356C6.34969 28.0063 6.18811 26.977 5.84701 25.9417L5.72733 25.5857L6.08339 25.7054C7.09772 26.0435 8.11804 26.208 9.14433 26.1961C10.1736 26.1811 11.2089 25.9896 12.2561 25.6186L12.6302 25.4869L12.4955 25.8609ZM9.54827 19.2543C8.56386 19.7181 7.70213 20.3046 6.96307 21.0227C6.22402 21.7408 5.61063 22.5816 5.11993 23.557L4.95237 23.8921L4.78481 23.557C4.30607 22.5995 3.70166 21.7617 2.96559 21.0466C2.22953 20.3285 1.36182 19.7331 0.356461 19.2573L-0.00259399 19.0868L0.356461 18.9162C1.34087 18.4524 2.2026 17.863 2.94166 17.1479C3.68071 16.4298 4.2941 15.589 4.78481 14.6135L4.95237 14.2784L5.11993 14.6135C5.59567 15.571 6.20308 16.4058 6.93914 17.1239C7.6752 17.842 8.54591 18.4375 9.54827 18.9132L9.90733 19.0838L9.54827 19.2543ZM11.7983 9.14693C11.8133 10.1762 12.0048 11.2115 12.3758 12.2587L12.5075 12.6328L12.1335 12.4981C11.1102 12.1301 10.0839 11.9356 9.05457 11.9206C8.02528 11.9057 6.99599 12.0672 5.96071 12.4083L5.60465 12.525L5.72433 12.169C6.06244 11.1546 6.22701 10.1343 6.21504 9.10803C6.20008 8.08173 6.00859 7.04346 5.63756 5.99921L5.50591 5.6252L5.87993 5.75984C6.90622 6.12787 7.92953 6.32236 8.95882 6.33732C9.98811 6.35228 11.0174 6.19071 12.0527 5.84961L12.4087 5.72992L12.2891 6.08598C11.9509 7.10032 11.7864 8.12063 11.7983 9.14693ZM23.3839 5.12252C22.4264 5.59827 21.5916 6.20567 20.8735 6.94173C20.1554 7.68079 19.5599 8.5485 19.0842 9.55087L18.9136 9.90992L18.7431 9.55087C18.2793 8.56646 17.6928 7.70472 16.9747 6.96567C16.2566 6.22661 15.4158 5.61323 14.4404 5.12252L14.1053 4.95496L14.4404 4.7874C15.3979 4.30866 16.2357 3.70425 16.9508 2.96819C17.6689 2.23213 18.2643 1.36441 18.7401 0.359055L18.9106 0L19.0812 0.359055C19.545 1.34346 20.1344 2.2052 20.8495 2.94425C21.5676 3.68331 22.4084 4.29669 23.3839 4.7874L23.719 4.95496L23.3839 5.12252Z" fill="white"/>
</g>
<defs>
<clipPath id="clip0_238_12">
<rect width="38" height="38" fill="white"/>
</clipPath>
</defs>
</svg>
