<svg width="110" height="106" viewBox="0 0 110 106" fill="none" xmlns="http://www.w3.org/2000/svg">
<g clip-path="url(#clip0_238_9)">
<path d="M109.171 62.0738C108.7 64.6147 103.066 66.2553 94.8053 66.2553H94.596C91.5082 63.8322 87.7575 61.3671 83.5358 59.0535C82.3234 58.3888 81.1109 57.7578 79.8985 57.1689C81.2592 57.0006 82.6199 56.8071 83.9894 56.5799C88.6559 55.7975 93.0695 54.7037 96.9336 53.4081C104.644 56.0415 109.669 59.3732 109.163 62.0654L109.171 62.0738ZM102.638 79.1277C101.879 80.3729 99.8731 80.6337 98.3205 80.6337C95.4682 80.6337 91.6652 79.8008 87.4348 78.3201C85.7949 75.6698 83.7539 72.8598 81.3813 69.9992C81.3028 69.9067 81.2156 69.8057 81.1371 69.7132C80.9365 69.4692 80.7359 69.2336 80.5265 68.9896C80.23 68.6447 79.9334 68.2997 79.6281 67.9632C78.7297 66.9452 77.8138 65.9608 76.8979 65.0185C78.2151 65.2962 79.5583 65.557 80.9452 65.7841C85.542 66.5498 90.1213 66.9704 94.2471 67.0041C100.545 71.9848 104.069 76.7552 102.629 79.1193L102.638 79.1277ZM73.8189 102.096C73.5747 102.18 73.3043 102.222 73.0251 102.222C70.2688 102.222 66.3873 98.2513 62.7151 92.1685C63.378 88.4245 63.7444 84.1169 63.7444 79.4979C63.7444 78.177 63.7095 76.8645 63.6484 75.5773C64.4683 76.5953 65.3231 77.6133 66.2303 78.6398C68.4632 81.1638 70.766 83.4859 73.0426 85.5135C73.9061 86.2791 74.7522 87.0111 75.5983 87.6925C77.0462 95.3571 76.5229 101.162 73.8189 102.096ZM55.0044 105.251C52.1172 105.251 49.5353 99.9676 48.1397 92.2862C50.1285 88.963 52.0387 85.0339 53.6785 80.7431C54.1583 79.4895 54.5944 78.2527 55.0044 77.0328C55.4056 78.2527 55.8504 79.4895 56.3302 80.7431C57.97 85.0255 59.8803 88.9546 61.869 92.2862C60.4734 99.9676 57.8915 105.251 55.0044 105.251ZM36.9836 102.231C36.7045 102.231 36.4341 102.189 36.1898 102.105C33.4771 101.171 32.9538 95.3655 34.4104 87.701C37.4895 85.2106 40.6994 82.1229 43.7697 78.6482C44.6769 77.6302 45.5317 76.6037 46.3516 75.5857C46.2905 76.8645 46.2556 78.1686 46.2556 79.5063C46.2556 84.1253 46.6307 88.4329 47.2849 92.1769C43.6214 98.2597 39.7312 102.231 36.9836 102.231ZM21.5185 93.5903C20.7335 93.5903 20.1055 93.4052 19.6432 93.035C18.0993 91.8067 18.3784 88.5171 20.4108 84.0075C21.1347 82.4005 22.0506 80.6926 23.1322 78.9342C26.9439 77.5797 31.0871 75.7203 35.2129 73.4571C36.4253 72.7925 37.6029 72.111 38.7455 71.4211C38.2222 72.6074 37.725 73.8189 37.2453 75.0725C35.5793 79.4306 34.3755 83.6121 33.6429 87.356C28.8106 91.243 24.397 93.5903 21.5272 93.5903H21.5185ZM11.6795 80.6421C10.1269 80.6421 8.12069 80.3813 7.36183 79.1362C5.92261 76.7636 9.44651 72.0016 15.7442 67.0209C19.8612 66.9873 24.4406 66.5666 29.0461 65.801C30.433 65.5654 31.7849 65.3046 33.1021 65.0354C32.1862 65.9777 31.2703 66.962 30.3719 67.98C27.319 71.4379 24.6674 74.98 22.5827 78.3369C18.3435 79.826 14.5405 80.659 11.6795 80.659V80.6421ZM15.1947 66.2637C6.94314 66.2637 1.30838 64.6231 0.828641 62.0823C0.331456 59.39 5.34692 56.0583 13.0489 53.4249C16.8171 54.6953 21.2132 55.7891 26.0019 56.5883C27.3713 56.8155 28.7408 57.0174 30.0928 57.1857C28.8803 57.7746 27.6766 58.4056 26.4555 59.0703C22.2338 61.384 18.4918 63.8491 15.404 66.2721H15.1859L15.1947 66.2637ZM7.36183 26.8807C8.12069 25.6356 10.1269 25.3747 11.6795 25.3747C14.5318 25.3747 18.3348 26.2077 22.5652 27.6884C24.5976 30.9612 27.2318 34.4948 30.3632 38.0453C31.2616 39.0633 32.1775 40.0477 33.0933 40.99C31.7762 40.7123 30.4242 40.4515 29.0373 40.2243C26.6386 39.8205 24.2399 39.5176 21.911 39.3073C19.7827 39.1222 17.7068 39.0212 15.7355 39.0044C9.43779 34.0237 5.91388 29.2617 7.3531 26.8892L7.36183 26.8807ZM19.6432 12.9819C20.1055 12.6117 20.7335 12.4266 21.5185 12.4266C24.3882 12.4266 28.8106 14.7823 33.6429 18.6609C34.3755 22.4048 35.5705 26.5863 37.2453 30.936C37.725 32.1896 38.2309 33.4095 38.7455 34.5958C37.6116 33.9059 36.4341 33.2244 35.2129 32.5598C31.0959 30.2966 26.9614 28.4456 23.1496 27.0911C19.0239 20.3604 17.4276 14.7403 19.6344 12.9819H19.6432ZM36.1898 3.91225C36.4341 3.82812 36.7045 3.78605 36.9836 3.78605C39.7312 3.78605 43.6214 7.75716 47.2849 13.8316C46.622 17.5756 46.2556 21.8832 46.2556 26.5106C46.2556 26.9565 46.2556 27.4024 46.2644 27.8483C46.2644 28.1596 46.2731 28.4709 46.2905 28.7822C46.2905 28.8999 46.2905 29.0261 46.2993 29.1439C46.308 29.5814 46.3342 30.0105 46.3516 30.4312C45.5317 29.4132 44.6769 28.3951 43.7697 27.3687C40.6994 23.894 37.4895 20.8063 34.4104 18.3159C32.9538 10.6514 33.4771 4.85455 36.1898 3.91225ZM73.0251 3.78605C73.3043 3.78605 73.5659 3.82812 73.8189 3.91225C75.703 4.56008 76.6275 7.74875 76.3484 12.6453C76.2525 14.3953 75.9995 16.2967 75.6245 18.2991C72.5454 20.7979 69.3181 23.8856 66.239 27.3687C65.3406 28.3867 64.4858 29.4047 63.6571 30.4312C63.7182 29.1523 63.7531 27.8483 63.7531 26.5106C63.7531 26.0478 63.7531 25.5935 63.7444 25.1308C63.7444 25.0803 63.7444 25.0298 63.7444 24.9793C63.7444 24.6007 63.7269 24.2221 63.7182 23.8435C63.7095 23.5154 63.692 23.2041 63.6833 22.8844C63.6833 22.7834 63.6833 22.6825 63.6746 22.5899C63.5263 19.4433 63.2035 16.4986 62.7325 13.8316C66.4047 7.74875 70.2863 3.78605 73.0426 3.78605H73.0251ZM88.4902 12.4266C89.2665 12.4266 89.9033 12.6201 90.3656 12.9819C92.5724 14.7403 90.9849 20.3604 86.8591 27.0911C83.0473 28.4456 78.9216 30.2966 74.8045 32.5598C73.5834 33.2244 72.4058 33.9059 71.2719 34.5958C71.7953 33.4095 72.2924 32.1896 72.7722 30.936C74.3946 26.6956 75.6157 22.4974 76.3571 18.6693C81.1894 14.7739 85.6205 12.4182 88.4902 12.4182V12.4266ZM98.3292 25.3747C99.8819 25.3747 101.888 25.6356 102.647 26.8807C103.65 28.5382 102.202 31.5333 98.6781 35.1174C97.4221 36.3963 95.948 37.7003 94.2994 38.996C90.1737 39.0296 85.5769 39.4503 80.9714 40.2159C79.5845 40.4431 78.2325 40.7039 76.9241 40.9815C77.84 40.0392 78.7471 39.0549 79.6543 38.0369C82.7857 34.4948 85.4199 30.9612 87.4522 27.68C91.6827 26.1993 95.4857 25.3663 98.338 25.3663L98.3292 25.3747ZM69.7542 53.0042C72.5541 52.104 75.5634 50.9009 78.6425 49.4454C80.3608 49.6389 82.114 49.8745 83.8673 50.1689C88.1588 50.8841 92.1973 51.8768 95.7386 53.0127C92.1537 54.1653 88.1151 55.1328 83.8673 55.8395C82.114 56.134 80.3695 56.3696 78.6425 56.5631C75.5547 55.1076 72.5454 53.9045 69.7455 53.0042H69.7542ZM70.1554 57.0595C69.3442 57.0595 68.5592 57.0427 67.8003 57.009C66.4571 56.0331 65.1487 55.1917 63.9188 54.4934C65.3406 54.241 66.867 53.8708 68.4894 53.3913C71.1847 54.2074 74.1242 55.3263 77.1509 56.7061C74.7173 56.9333 72.3622 57.0511 70.1554 57.0511V57.0595ZM68.8645 57.7999C69.2919 57.8083 69.7106 57.8167 70.1554 57.8167C72.7722 57.8167 75.5983 57.6568 78.5029 57.3455C80.0381 58.0775 81.5994 58.8684 83.1433 59.7265C86.9201 61.7962 90.3568 64.0342 93.2702 66.2553C89.4584 66.1712 85.289 65.7589 81.1022 65.0606C79.3315 64.7661 77.6045 64.4212 75.9297 64.0426C73.5485 61.67 71.1498 59.5667 68.8558 57.8167L68.8645 57.7999ZM86.2049 77.8826C82.7072 76.5785 78.9477 74.8537 75.197 72.8009C73.6357 71.9511 72.1354 71.0593 70.7049 70.1591C69.3181 67.1471 67.8265 64.4044 66.3001 62.0234C69.0215 63.0246 72.1354 63.9416 75.5372 64.7156C76.7148 65.9019 77.8836 67.1471 79.035 68.4512C81.8349 71.623 84.2598 74.8453 86.2049 77.8741V77.8826ZM66.8496 78.1602C65.6982 76.8561 64.6079 75.5352 63.5786 74.2227C63.3693 70.992 62.9593 67.9211 62.3836 65.1616C64.573 66.9873 67.1636 68.855 70.0595 70.6723C70.7486 72.1699 71.394 73.7264 72.0133 75.3249C73.5049 79.2203 74.6301 83.04 75.3628 86.5231C75.1273 86.3296 74.9005 86.1277 74.6562 85.9257C72.0744 83.6962 69.414 81.0712 66.8408 78.1602H66.8496ZM53.0941 65.6748C53.8704 64.2445 54.5159 62.8899 55.0131 61.6195C55.5103 62.8899 56.1557 64.2445 56.932 65.6748C56.557 68.325 55.9202 71.2612 55.0131 74.349C54.1147 71.2612 53.4692 68.3166 53.0941 65.6748ZM48.6543 64.2782C49.4743 63.563 50.2331 62.8395 50.9309 62.1327C51.2798 61.7794 51.6026 61.4344 51.9079 61.0979C51.9166 62.4525 52.0387 63.9416 52.248 65.5317C50.9397 67.8959 49.2824 70.4536 47.3198 73.0617C47.5815 69.8646 48.0438 66.8863 48.6456 64.2782H48.6543ZM47.6251 65.1531C47.0581 67.8707 46.6482 70.9247 46.4388 74.2312C45.4183 75.5352 44.328 76.8561 43.1679 78.1602C40.3679 81.332 37.4546 84.1758 34.6547 86.5231C35.3874 83.04 36.5038 79.2203 37.9954 75.3249C38.6147 73.7179 39.2602 72.1615 39.9492 70.6723C42.7928 68.8803 45.3921 67.0125 47.6164 65.1616L47.6251 65.1531ZM44.9734 61.5438C46.5348 60.9296 47.9478 60.2734 49.1864 59.6087C48.7067 60.8876 48.2793 62.3347 47.9042 63.908C45.7934 65.7337 43.3074 67.5846 40.5685 69.3682C41.9642 66.4572 43.4644 63.807 44.9734 61.5438ZM43.7261 62.015C42.1997 64.3959 40.6994 67.1471 39.3212 70.1591C37.882 71.0593 36.3817 71.9427 34.8291 72.7925C31.0697 74.8537 27.3016 76.5785 23.7951 77.8826C25.7751 74.8033 28.2174 71.5894 30.9912 68.4512C32.1513 67.1471 33.3201 65.9019 34.4889 64.7156C37.8907 63.9416 41.0047 63.0246 43.7261 62.015ZM42.4701 57.7578C42.6707 57.7494 42.8626 57.741 43.0632 57.7326C43.6999 57.6989 44.3192 57.6484 44.9124 57.5979C45.7149 57.5222 46.4824 57.4297 47.2064 57.3119C46.2993 58.3551 45.3834 59.5583 44.4763 60.9044C41.8595 61.9224 38.8328 62.8731 35.5444 63.6892C37.8995 61.4008 40.2545 59.3984 42.4788 57.7662L42.4701 57.7578ZM39.8707 57.8167C40.3069 57.8167 40.7343 57.8167 41.1617 57.7999C38.8677 59.5498 36.4777 61.6532 34.0964 64.0257C32.4217 64.4043 30.6946 64.7493 28.924 65.0438C24.7371 65.7421 20.559 66.1543 16.7473 66.2469C19.6693 64.0257 23.0973 61.7878 26.8742 59.7181C28.4268 58.8684 29.9794 58.0691 31.5146 57.3371C34.4192 57.6484 37.2453 57.8083 39.862 57.8083L39.8707 57.8167ZM14.3137 53.0127C17.8463 51.8768 21.8761 50.8925 26.1589 50.1773C27.9121 49.8829 29.6566 49.6389 31.375 49.4538C34.4628 50.9093 37.472 52.104 40.272 53.0127C37.472 53.9129 34.4628 55.116 31.375 56.5715C29.6566 56.378 27.9121 56.1424 26.1589 55.848C21.8761 55.1328 17.8463 54.1485 14.3137 53.0127ZM15.2121 39.7532C15.2819 39.7532 15.3604 39.7532 15.4302 39.7532C18.518 42.1762 22.2687 44.6329 26.4816 46.9466C27.6941 47.6113 28.9065 48.2339 30.1189 48.8312C28.7669 48.9995 27.3975 49.193 26.0281 49.4201C21.2394 50.2194 16.8432 51.3216 13.0751 52.5836C5.34692 49.9502 0.322734 46.6269 0.828641 43.9262C0.950757 43.2616 1.4305 42.6642 2.2068 42.1342C4.41361 40.6366 9.08889 39.7364 15.1947 39.7364L15.2121 39.7532ZM28.924 40.9731C30.6946 41.2676 32.4217 41.6125 34.0964 41.9911C36.4777 44.3721 38.8677 46.4671 41.1617 48.217C40.743 48.2086 40.3156 48.2002 39.8707 48.2002C37.2453 48.2002 34.4279 48.3601 31.5233 48.6714C29.9881 47.9394 28.4355 47.1485 26.8829 46.2904C23.106 44.2207 19.6693 41.9827 16.756 39.7616C18.4046 39.7953 20.1142 39.8962 21.8674 40.0561C24.1702 40.258 26.5514 40.5693 28.924 40.9647V40.9731ZM43.7261 44.0019C41.0047 42.9923 37.8907 42.0753 34.4889 41.3012C33.3114 40.1234 32.1426 38.8698 30.9912 37.5657C28.1913 34.3939 25.7664 31.1716 23.8213 28.1427C27.319 29.4468 31.0784 31.1716 34.8291 33.2244C36.3905 34.0826 37.8907 34.966 39.3212 35.8578C40.7081 38.8698 42.1997 41.621 43.7261 44.0019ZM47.9129 42.1426C48.288 43.7075 48.7154 45.1377 49.1864 46.4166C47.9391 45.7519 46.5348 45.1041 44.9734 44.4815C43.4644 42.2267 41.9729 39.5765 40.5773 36.6655C43.3598 38.4828 45.837 40.3421 47.9129 42.1426ZM47.6251 40.8553C45.4357 39.0381 42.8539 37.1703 39.9492 35.353C39.2689 33.8554 38.6147 32.2989 37.9954 30.7004C36.5038 26.805 35.3786 22.9854 34.6547 19.5022C37.4546 21.8495 40.3679 24.6933 43.1679 27.8651C44.3192 29.1692 45.4096 30.4901 46.4388 31.7941C46.6482 35.0922 47.0581 38.1462 47.6251 40.8553ZM47.9478 14.9422C49.7359 18.0635 51.463 21.6645 52.9458 25.5346C53.5651 27.1416 54.1059 28.7317 54.5944 30.2882C53.6088 33.4516 52.8935 36.4552 52.4487 39.1895C51.0443 36.7664 49.2911 34.1751 47.2239 31.5249C47.1192 29.9011 47.0668 28.2269 47.0668 26.519C47.0668 22.388 47.3896 18.4421 47.9478 14.9422ZM62.4098 40.8553C62.9768 38.1462 63.3867 35.0838 63.5961 31.7857C64.6166 30.4732 65.7156 29.1608 66.8583 27.8651C69.667 24.6849 72.589 21.8411 75.3977 19.4854C74.6563 23.019 73.5136 26.8387 72.0308 30.7004C71.4202 32.2989 70.766 33.8554 70.0769 35.353C67.181 37.1703 64.5992 39.0381 62.4098 40.8553ZM65.0614 44.4815C63.5001 45.1041 62.0871 45.7519 60.8397 46.4166C60.9182 46.1978 61.0055 45.9791 61.0752 45.7519C61.459 44.6498 61.8079 43.4382 62.1132 42.1426C64.1892 40.3421 66.6751 38.4828 69.4489 36.6655C68.0533 39.5681 66.553 42.2183 65.0527 44.4731L65.0614 44.4815ZM66.3001 44.0104C67.8265 41.6294 69.3181 38.8866 70.7049 35.8746C72.1354 34.9744 73.6357 34.091 75.197 33.2328C78.9477 31.18 82.7072 29.4552 86.2049 28.1512C84.2598 31.18 81.8349 34.4023 79.035 37.5741C77.8836 38.8782 76.706 40.1318 75.5372 41.3097C72.1354 42.0837 69.0215 43.0007 66.3001 44.0104ZM67.5648 48.2675C65.829 48.3432 64.2415 48.4947 62.8285 48.7134C63.7356 47.6702 64.6515 46.4671 65.5586 45.1209C68.1754 44.0945 71.2021 43.1438 74.4905 42.3361C72.1354 44.6245 69.7803 46.6269 67.5561 48.2591L67.5648 48.2675ZM70.1554 48.2086C69.7193 48.2086 69.2919 48.2086 68.8645 48.2254C71.1585 46.4755 73.5485 44.3805 75.9385 41.9996C77.6045 41.621 79.3315 41.276 81.1109 40.9815C85.3065 40.2748 89.4846 39.871 93.3138 39.7784C90.3481 42.0248 86.894 44.2543 83.152 46.3072C81.5994 47.157 80.0468 47.9562 78.5116 48.6882C75.607 48.3769 72.7896 48.217 70.1641 48.217L70.1554 48.2086ZM63.9188 51.5235C65.1487 50.8336 66.4571 49.9838 67.8003 49.0079C68.5592 48.9827 69.3442 48.9658 70.1467 48.9658C72.3535 48.9658 74.7173 49.0836 77.1509 49.3108C74.1155 50.6906 71.1847 51.8095 68.4894 52.6341C66.8757 52.1545 65.3406 51.7843 63.9188 51.5319V51.5235ZM60.7787 53.0211C61.4329 52.7771 62.1132 52.4742 62.8198 52.1124C64.1456 52.2975 65.5848 52.6088 67.12 53.0211C65.5848 53.4333 64.1456 53.7362 62.8198 53.9297C62.1132 53.5679 61.4242 53.2651 60.7787 53.0211ZM62.8285 57.3203C64.2415 57.5475 65.829 57.6989 67.5648 57.7662C69.7891 59.3984 72.1354 61.4008 74.4992 63.6892C71.2108 62.8815 68.1841 61.9308 65.5674 60.9044C64.6602 59.5583 63.7443 58.3551 62.8372 57.3119L62.8285 57.3203ZM60.3862 58.4898C60.0809 57.7746 59.7581 57.1352 59.4354 56.5463C60.0983 56.7566 60.8223 56.9417 61.616 57.1016C62.4796 58.0354 63.3606 59.1292 64.2415 60.3659C62.8023 59.7518 61.5114 59.1208 60.3949 58.4813L60.3862 58.4898ZM61.2933 60.938C61.145 60.4753 60.988 60.0378 60.8397 59.6171C62.0783 60.2818 63.5001 60.938 65.0614 61.5606C66.5704 63.8238 68.062 66.4656 69.4576 69.3766C66.6751 67.5594 64.1892 65.7 62.1132 63.8995C61.869 62.8563 61.5899 61.8803 61.302 60.9465L61.2933 60.938ZM58.0921 59.9032C58.0572 59.1292 57.9875 58.414 57.8828 57.7578C58.4323 58.17 59.0516 58.5907 59.7407 59.003C60.0198 59.6676 60.2815 60.3828 60.5257 61.1568C60.7089 61.7289 60.8834 62.3262 61.0491 62.9404C59.9064 61.8972 58.9121 60.8707 58.0921 59.9032ZM57.7694 65.5486C57.9788 63.9584 58.0921 62.4693 58.1096 61.1147C59.0429 62.1496 60.1419 63.2265 61.3893 64.3202C62.0086 66.9704 62.4447 69.9403 62.7064 73.0954C60.7438 70.4788 59.0778 67.9211 57.7781 65.5486H57.7694ZM53.068 56.9753C53.3209 56.7398 53.5477 56.5126 53.757 56.2855C53.757 56.5799 53.7745 56.8912 53.8094 57.2193C53.539 57.7241 53.1901 58.2542 52.7888 58.8095C52.8499 58.1448 52.9371 57.5306 53.068 56.9838V56.9753ZM51.7509 56.1172C52.0649 55.9826 52.3702 55.8395 52.6405 55.6965C52.5359 55.9742 52.4399 56.277 52.3614 56.5967C51.9166 56.9753 51.4107 57.3624 50.8263 57.7494C51.1228 57.1436 51.4281 56.6052 51.7509 56.1256V56.1172ZM50.582 56.5463C50.2419 57.1268 49.9278 57.783 49.6226 58.4898C48.5061 59.1292 47.2064 59.7602 45.7672 60.3743C46.6482 59.1376 47.5291 58.0438 48.3927 57.11C49.1864 56.9501 49.9191 56.765 50.582 56.5463ZM47.189 52.1124C47.8955 52.4742 48.5846 52.7771 49.23 53.0211C48.5758 53.2651 47.8955 53.5679 47.189 53.9297C45.8631 53.7446 44.4239 53.4417 42.8887 53.0211C44.4239 52.6088 45.8631 52.2975 47.189 52.1124ZM46.0899 51.5235C44.6681 51.7759 43.1417 52.1461 41.528 52.6256C38.8328 51.8095 35.8933 50.6821 32.8578 49.3024C35.2914 49.0752 37.6465 48.9574 39.862 48.9574C40.6732 48.9574 41.4582 48.9742 42.2084 48.9995C43.5517 49.9754 44.86 50.8168 46.0899 51.5151V51.5235ZM48.0263 49.6473C48.5584 50.211 49.0905 50.7074 49.6051 51.1449C48.8811 51.1617 48.1136 51.229 47.2936 51.3384C46.1335 50.7326 44.8949 49.9838 43.604 49.092C45.2351 49.2014 46.7179 49.3865 48.0263 49.6473ZM44.4501 45.1293C45.3572 46.4755 46.2818 47.6786 47.1802 48.7218C45.7672 48.4947 44.1797 48.3516 42.4526 48.2759C40.2284 46.6437 37.8733 44.6414 35.5182 42.3529C38.8066 43.1606 41.8333 44.1113 44.4501 45.1377V45.1293ZM51.8991 44.9274C50.9745 43.901 49.8842 42.8325 48.6369 41.7387C48.035 39.1306 47.5815 36.1607 47.3111 32.9636C49.2649 35.5717 50.9309 38.1294 52.2393 40.4936C52.0212 42.0921 51.9079 43.5729 51.8991 44.9274ZM54.5857 45.5584C54.3327 46.2988 54.1408 46.9887 54.0013 47.6365C53.6349 47.0644 53.2075 46.4839 52.7103 45.8781C52.6842 44.6414 52.7539 43.2616 52.9197 41.7724C53.6088 43.1185 54.1757 44.3974 54.5944 45.5668L54.5857 45.5584ZM56.9233 40.3674C56.4087 41.3097 55.9551 42.2351 55.5539 43.1269C55.3533 43.5729 55.1788 44.0019 55.0131 44.4142C54.5159 43.1438 53.8704 41.7892 53.0941 40.3505C53.4692 37.7003 54.1059 34.7641 55.0131 31.6764C55.9202 34.7641 56.557 37.7087 56.932 40.359L56.9233 40.3674ZM57.5775 39.2147C57.1327 36.4804 56.4174 33.4684 55.423 30.2966C55.9115 28.7401 56.461 27.1416 57.0716 25.543C58.5544 21.6729 60.2728 18.0719 62.0696 14.9506C62.6366 18.4505 62.9506 22.3964 62.9506 26.5274C62.9506 28.2353 62.8983 29.9096 62.7849 31.5333C60.7612 34.1415 58.9906 36.7412 57.5601 39.2063L57.5775 39.2147ZM61.3718 41.7472C60.1332 42.8325 59.0342 43.901 58.1183 44.9358C58.1009 43.5813 57.9875 42.0837 57.7694 40.4852C59.0952 38.0789 60.7612 35.5381 62.6976 32.9636C62.436 36.1691 61.9737 39.1474 61.3718 41.7556V41.7472ZM59.7407 47.056C59.0516 47.4598 58.4323 47.8805 57.8828 48.2928C57.9875 47.6281 58.0572 46.913 58.0921 46.1473C58.9033 45.1798 59.8977 44.1702 61.0229 43.1269C60.9793 43.2952 60.9357 43.4635 60.8921 43.6233C60.5432 44.8769 60.1594 46.0296 59.7407 47.0476V47.056ZM59.4267 49.5043C59.7669 48.9238 60.0809 48.2759 60.3862 47.5608C61.5027 46.9214 62.7936 46.282 64.2328 45.6762C63.3518 46.913 62.4709 48.0151 61.616 48.9406C60.8223 49.1004 60.0896 49.2855 59.4267 49.5043ZM59.1912 51.1701C58.8423 51.1954 58.5021 51.229 58.1968 51.2795C58.3887 51.0608 58.5806 50.8168 58.7638 50.5644C59.3133 50.3456 59.9413 50.1521 60.6217 49.967C60.1332 50.4297 59.6535 50.8336 59.1912 51.1701ZM60.4036 51.1617C60.927 50.7242 61.4503 50.2194 61.9824 49.6641C63.2908 49.4033 64.7736 49.2182 66.4047 49.1089C65.1138 49.9923 63.8752 50.7495 62.7151 51.3552C61.8952 51.2458 61.1189 51.1785 60.4036 51.1617ZM59.4354 52.6004C59.1563 52.5247 58.8859 52.4658 58.6242 52.4237C58.8946 52.2807 59.1563 52.1124 59.4267 51.9189C59.6273 51.9105 59.8279 51.9105 60.0198 51.9105C60.4647 51.9105 60.9444 51.9357 61.4329 51.9778C60.7961 52.2554 60.1855 52.4826 59.6099 52.6509C59.5575 52.6341 59.4965 52.6172 59.4441 52.6004H59.4354ZM60.4036 54.9141C61.1276 54.8972 61.8952 54.8299 62.7151 54.7206C63.8752 55.3179 65.1138 56.0751 66.4047 56.9669C64.7736 56.8576 63.2908 56.6641 61.9824 56.4117C61.4503 55.848 60.9182 55.3432 60.4036 54.9141ZM58.2055 54.7963C58.5195 54.8468 58.8423 54.872 59.1912 54.8972C59.6535 55.2338 60.1332 55.6376 60.6217 56.1004C59.9413 55.9237 59.322 55.7302 58.7725 55.5114C58.5893 55.2506 58.3974 55.015 58.2055 54.7963ZM57.3682 55.7133C57.6386 55.8564 57.9351 55.9994 58.2491 56.134C58.5719 56.6052 58.8772 57.152 59.1825 57.7578C58.6068 57.3792 58.0921 56.9922 57.656 56.6136C57.5775 56.2939 57.4816 55.9994 57.3769 55.7133H57.3682ZM56.2081 57.253C56.243 56.9249 56.2604 56.6052 56.2691 56.3023C56.4785 56.5294 56.6965 56.765 56.9582 56.9922C57.0891 57.5475 57.1763 58.1616 57.2373 58.8263C56.8274 58.2794 56.4872 57.7494 56.2168 57.2446L56.2081 57.253ZM50.835 54.8972C51.1839 54.872 51.5241 54.8384 51.8294 54.7879C51.6375 55.0066 51.4543 55.2506 51.2711 55.503C50.7216 55.7218 50.0936 55.9237 49.4132 56.1004C49.9017 55.6376 50.3814 55.2338 50.8437 54.8972H50.835ZM49.6226 54.9141C49.0992 55.3432 48.5758 55.848 48.0438 56.4117C46.7354 56.6641 45.2526 56.8491 43.6214 56.9669C44.9124 56.0751 46.151 55.3179 47.3111 54.7206C48.131 54.8299 48.9073 54.8972 49.6226 54.9141ZM51.4019 53.6521C51.1403 53.8035 50.8699 53.9634 50.5995 54.1569C50.3989 54.1653 50.1982 54.1737 50.0063 54.1737C49.5615 54.1737 49.0818 54.1485 48.5933 54.1064C49.23 53.8287 49.8493 53.6016 50.4163 53.4249C50.7565 53.5259 51.0792 53.5932 51.4019 53.6521ZM50.5995 51.9189C50.8699 52.1124 51.1403 52.2807 51.4019 52.4237C51.0879 52.4826 50.7565 52.5583 50.4163 52.6509C49.8406 52.4826 49.23 52.2554 48.5933 51.9778C49.0818 51.9357 49.5615 51.9105 50.0063 51.9105C50.1982 51.9105 50.3989 51.9105 50.5995 51.9189ZM51.2624 50.5644C51.4456 50.8252 51.6375 51.0608 51.8294 51.2795C51.5153 51.229 51.1926 51.1954 50.8437 51.1701C50.3814 50.8336 49.9017 50.4297 49.4132 49.967C50.0936 50.1437 50.7129 50.3372 51.2624 50.5644ZM49.64 47.5692C49.64 47.5692 49.6487 47.6029 49.6574 47.6197C49.6836 47.6702 49.7011 47.7206 49.7272 47.7711C49.7883 47.9057 49.8406 48.0235 49.9017 48.1497C50.1285 48.6377 50.364 49.092 50.5995 49.5043C49.9366 49.2939 49.2039 49.1088 48.4101 48.9406C47.5553 48.0067 46.6743 46.913 45.7934 45.6762C47.2326 46.2904 48.5322 46.9214 49.6487 47.5608L49.64 47.5692ZM53.757 49.7651C53.5564 49.5379 53.3296 49.3024 53.0767 49.0752C52.9458 48.5199 52.8499 47.9057 52.7888 47.2411C53.1988 47.788 53.5302 48.3096 53.8094 48.8144C53.7745 49.1509 53.757 49.4622 53.7483 49.7651H53.757ZM55.4056 48.6882C55.2486 48.9827 55.1178 49.2771 55.0131 49.5632C54.9084 49.2855 54.7776 48.9995 54.6293 48.705C54.7078 48.1413 54.8386 47.5356 55.0218 46.8793C55.205 47.5271 55.3358 48.1329 55.4143 48.6966L55.4056 48.6882ZM56.9495 49.0752C56.6965 49.3108 56.4697 49.5379 56.2604 49.7735C56.2604 49.4706 56.243 49.1593 56.1993 48.8228C56.4785 48.318 56.8186 47.788 57.2199 47.2411C57.1588 47.9057 57.0629 48.5199 56.9408 49.0752H56.9495ZM58.2666 49.9334C57.9439 50.068 57.6473 50.211 57.3682 50.3624C57.4728 50.0848 57.5688 49.7819 57.6473 49.4622C58.0921 49.0836 58.598 48.6966 59.1825 48.318C58.8859 48.9238 58.5806 49.4622 58.2666 49.9418V49.9334ZM52.3789 49.4622C52.4574 49.7819 52.5533 50.0764 52.658 50.3624C52.3876 50.211 52.091 50.0764 51.777 49.9418C51.4543 49.4706 51.149 48.9238 50.8437 48.318C51.4194 48.6966 51.934 49.0836 52.3702 49.4622H52.3789ZM59.4354 54.1485C59.165 53.955 58.8946 53.7951 58.6329 53.6437C58.947 53.5848 59.2784 53.5175 59.6186 53.4165C60.1943 53.5848 60.8049 53.8119 61.4416 54.098C60.9531 54.14 60.4734 54.1653 60.0285 54.1653C59.8366 54.1653 59.6448 54.1653 59.4354 54.1485ZM57.3158 45.8781C56.8186 46.4839 56.3825 47.0812 56.0162 47.6449C55.8766 46.9887 55.6847 46.2904 55.4318 45.5584C55.676 44.8853 55.9551 44.1786 56.2953 43.4298C56.5395 42.883 56.8187 42.3193 57.1065 41.7472C57.2722 43.2447 57.342 44.6414 57.3158 45.8865V45.8781ZM51.934 46.1473C51.9602 46.913 52.03 47.6281 52.1346 48.2928C51.5851 47.8805 50.9658 47.4598 50.2855 47.056C49.8144 45.9034 49.3783 44.5825 48.9945 43.1269C50.1197 44.1702 51.1141 45.1798 51.934 46.1473ZM54.9607 59.003C54.8037 58.4309 54.6903 57.8924 54.6206 57.3876C54.7776 57.0931 54.9084 56.7987 55.0131 56.5126C55.1265 56.7987 55.2486 57.0847 55.4056 57.3792C55.3271 57.9429 55.1963 58.5486 55.0131 59.1965C54.9956 59.1292 54.9782 59.0703 54.9607 59.003ZM57.1065 64.2866C56.4174 62.9404 55.8592 61.67 55.4318 60.4921C55.6847 59.7602 55.8766 59.0619 56.0162 58.4056C56.3825 58.9777 56.8186 59.5667 57.3158 60.1808C57.342 61.4176 57.2722 62.7974 57.1065 64.2866ZM32.8665 56.7398C35.902 55.36 38.8328 54.241 41.5368 53.4249C43.1504 53.9045 44.6856 54.2747 46.0986 54.5271C44.8688 55.2254 43.5604 56.0667 42.2171 57.0342C41.4583 57.0679 40.6819 57.0847 39.8707 57.0847C37.6639 57.0847 35.3001 56.9669 32.8665 56.7398ZM50.3552 61.6448C49.9278 62.0823 49.4655 62.5198 48.9858 62.9657C49.3696 61.5017 49.8057 60.1724 50.2767 59.0114C50.9658 58.5991 51.5764 58.1869 52.1259 57.7662C52.0212 58.4309 51.9515 59.146 51.9166 59.92C51.4543 60.4753 50.9309 61.0558 50.3465 61.6448H50.3552ZM52.7191 60.1893C53.2162 59.5835 53.6524 58.9861 54.0187 58.4224C54.1583 59.0787 54.3502 59.7686 54.6031 60.5006C54.1844 61.67 53.6175 62.9488 52.9284 64.295C52.7627 62.8058 52.6929 61.426 52.7191 60.1893ZM59.261 4.90503C59.2959 4.98075 59.3307 5.05647 59.3744 5.1406C59.418 5.23315 59.4616 5.3257 59.5052 5.41825C60.4734 7.60572 61.2846 10.4579 61.8864 13.7475C59.9064 17.0708 57.9962 20.9998 56.3476 25.2822C55.8679 26.5358 55.423 27.781 55.0218 29.0009C54.6206 27.781 54.1757 26.5442 53.696 25.2822C52.0561 20.9998 50.1459 17.0708 48.1572 13.7475C49.5528 6.07449 52.1346 0.782481 55.0218 0.782481C55.1526 0.782481 55.2748 0.790894 55.4056 0.816134C56.7576 1.0433 58.1009 2.48198 59.2697 4.90503H59.261ZM47.2239 74.5256C49.2911 71.8754 51.053 69.2841 52.4487 66.8611C52.8935 69.587 53.6088 72.5906 54.6031 75.7624C54.1147 77.3189 53.5651 78.9174 52.9546 80.5159C51.4717 84.3861 49.7534 87.9954 47.9565 91.1084C47.3983 87.6084 47.0756 83.6625 47.0756 79.5316C47.0756 77.8237 47.1279 76.1494 47.2326 74.5256H47.2239ZM62.968 79.5316C62.968 83.6625 62.6453 87.6084 62.0871 91.1084C60.2989 87.9954 58.5719 84.3861 57.089 80.5159C56.4697 78.909 55.929 77.3189 55.4405 75.7624C56.4261 72.599 57.1414 69.5954 57.5862 66.8611C58.9906 69.2841 60.7438 71.8754 62.8198 74.534C62.9157 76.1662 62.968 77.8321 62.968 79.5316ZM90.7493 87.0195C90.7842 87.1373 90.8191 87.255 90.854 87.3644C90.8976 87.5243 90.95 87.6925 90.9936 87.8524C90.9936 87.8692 90.9936 87.8861 91.0023 87.8945C91.5693 90.1661 91.4646 91.8656 90.6447 92.791C90.5662 92.8836 90.4702 92.9677 90.3743 93.0519C89.912 93.422 89.284 93.6071 88.4989 93.6071C85.6292 93.6071 81.2069 91.2514 76.3746 87.3728C75.6506 83.6289 74.4469 79.4474 72.7722 75.0893C72.2924 73.8357 71.7865 72.6242 71.2719 71.4379C72.4058 72.1194 73.5834 72.8093 74.8045 73.474C78.9216 75.7287 83.0473 77.5881 86.8591 78.9426C88.6385 81.8537 89.9556 84.5544 90.6883 86.826C90.7057 86.8849 90.7319 86.9522 90.7493 87.0195ZM94.8228 39.7784C103.074 39.7784 108.709 41.419 109.189 43.9683C109.538 45.8445 107.095 48.2002 102.49 50.4129C100.85 51.2038 99.0009 51.9442 96.9947 52.6341C93.2178 51.3636 88.8042 50.2699 84.0068 49.4622C82.6374 49.2351 81.2679 49.0331 79.9159 48.8733C81.1284 48.2759 82.3321 47.6533 83.5532 46.9887C87.6616 44.7339 91.4297 42.2688 94.596 39.7953C94.6745 39.7953 94.753 39.7953 94.8315 39.7953L94.8228 39.7784ZM98.1461 53.0295C99.847 52.4237 101.426 51.7675 102.848 51.086C107.863 48.6714 110.393 46.0969 109.965 43.8337C109.424 40.9058 104.042 39.1222 95.5293 39.0296C96.9075 37.9022 98.1635 36.7749 99.2538 35.6643C103.092 31.7689 104.548 28.5298 103.336 26.5358C102.577 25.2822 100.894 24.6512 98.3292 24.6512C95.5991 24.6512 92.0228 25.3832 88.0541 26.7041C92.0664 19.9229 93.3399 14.3953 90.8802 12.435C90.2696 11.9554 89.4671 11.703 88.4989 11.703C85.6118 11.703 81.2941 13.9073 76.5752 17.584C76.8718 15.8676 77.0637 14.2439 77.1596 12.7126C77.4649 7.38697 76.3833 4.02163 74.1067 3.23077C73.7753 3.11298 73.4176 3.05409 73.0426 3.05409C70.1205 3.05409 66.2216 6.79804 62.5232 12.7042C61.9562 9.86892 61.2235 7.38697 60.36 5.40142C60.3513 5.36777 60.3338 5.33411 60.3251 5.30887C60.2553 5.15743 60.1856 5.0144 60.1245 4.86296C60.0634 4.74518 60.0111 4.62739 59.9588 4.5096C59.95 4.48436 59.9326 4.46754 59.9239 4.4423C58.5021 1.57334 56.8186 0.0336914 55.0305 0.0336914C51.8119 0.0336914 49.0469 5.05647 47.5291 12.7126C43.8221 6.80645 39.9231 3.0625 37.0098 3.0625C36.6347 3.0625 36.2771 3.1214 35.9456 3.23918C32.9189 4.28244 32.1339 9.89415 33.4597 17.5756C28.7408 13.9073 24.4231 11.7114 21.5447 11.7114C20.5765 11.7114 19.7653 11.9554 19.1634 12.4434C16.6949 14.4037 17.9772 19.9313 21.9895 26.7125C18.0121 25.3916 14.4533 24.6596 11.7144 24.6596C9.15867 24.6596 7.4665 25.2906 6.70764 26.5442C5.10269 29.1944 8.28642 33.9648 14.4969 39.0381C9.36801 39.0969 5.38181 39.7616 2.90461 40.9311C1.27349 41.6967 0.296566 42.681 0.0785024 43.8421C-0.47974 46.8457 4.23043 50.2951 11.8801 53.0463C4.19554 55.747 -0.514631 59.1965 0.0436122 62.2085C0.593132 65.1363 5.9575 66.9115 14.462 67.0125C8.25153 72.0858 5.05907 76.8561 6.67275 79.5063C7.43161 80.7599 9.11506 81.3909 11.6795 81.3909C14.4184 81.3909 17.9946 80.6506 21.9721 79.3297C21.0737 80.8441 20.3061 82.308 19.6781 83.7046C17.4713 88.618 17.2794 92.1264 19.1285 93.6071C19.7391 94.0951 20.5416 94.3391 21.5098 94.3391C24.3882 94.3391 28.7059 92.1432 33.4248 88.475C32.099 96.1564 32.884 101.768 35.9107 102.811C36.2509 102.929 36.5998 102.988 36.9749 102.988C39.8882 102.988 43.7872 99.2441 47.4943 93.3379C49.012 100.986 51.777 106.008 54.9956 106.008C58.2143 106.008 60.9793 100.986 62.497 93.3379C66.1954 99.2441 70.1031 102.988 73.0164 102.988C73.3915 102.988 73.7491 102.929 74.0806 102.811C77.1073 101.768 77.8923 96.1564 76.5665 88.475C81.2767 92.1432 85.5943 94.3391 88.4815 94.3391C89.4584 94.3391 90.2609 94.0951 90.8627 93.6071C92.3194 92.4461 92.5026 90.023 91.4471 86.6493C91.421 86.5483 91.3861 86.4558 91.3599 86.3548C91.3338 86.2791 91.2989 86.195 91.2727 86.1108C90.5836 84.0916 89.4933 81.7948 88.0366 79.3297C92.0054 80.6506 95.5729 81.3909 98.3118 81.3909C100.867 81.3909 102.56 80.7599 103.319 79.5063C104.923 76.8561 101.74 72.0858 95.5293 67.0125C104.034 66.9115 109.407 65.1363 109.948 62.2085C110.506 59.1965 105.787 55.747 98.1286 52.9958L98.1461 53.0295Z" fill="white"/>
</g>
<defs>
<clipPath id="clip0_238_9">
<rect width="110" height="106" fill="white"/>
</clipPath>
</defs>
</svg>
